# xmcd
#
# Track frame offsets:
#	150
#	16275
#	33225
#	48225
#	60150
#	91165
#	107362
#	142875
#	161550
#	174637
#	192262
#	204450
#	216900
#	230212
#	242625
#	256275
#
# Disc length: 3602
#
# Revision: 4
# Processed by: cddbd v1.5.1PL0 Copyright (c) Steve Scherf et al.
# Submitted via: audiograbber 1.82.02
# Normalized: r3:DSETVAR1
#
DISCID=ce0e1010
DTITLE=Various Artist - Slidin' ... Some Slide
DYEAR=1993
DGENRE=Blues
TTITLE0=Smokin' Joe Kubeck - Natural Born Lover (Ft. B'nois King)
TTITLE1=J.B. Hutto - New Hawk Walk
TTITLE2=Elmore James - It Hurts Me Too
TTITLE3=Hop Wilson - Dance To It (Chicken Stuff)
TTITLE4=Robert Nighthawk - Maxwell Street Medley
TTITLE5=Hound Dog Taylor - Give Me Back My Wig
TTITLE6=George Thorogood and The Delaware Destroyers - Delaware Slide
TTITLE7=Ron Levy's Wild Kingdom - Knee Squeeze (Ft. Ronnie Earl and Wayne Bennett)
TTITLE8=John Mooney - Country Girl
TTITLE9=Lil' Ed and the Imperials - Packin' Up
TTITLE10=Muddy Waters - I Can't Be Satisfied
TTITLE11=Earl Hooker - Blue Guitar
TTITLE12=Taj Mahal and Ry Cooder - Statesboro Blues
TTITLE13=Hop Wilson - I Done Got Over
TTITLE14=J.B. Hutto - Somebody Loan Me a Dime
TTITLE15=Sonny Landreth - Zydeco Shuffle
EXTD=YEAR: 1993
EXTT0=
EXTT1=
EXTT2=
EXTT3=
EXTT4=
EXTT5=
EXTT6=
EXTT7=
EXTT8=
EXTT9=
EXTT10=
EXTT11=
EXTT12=
EXTT13=
EXTT14=
EXTT15=
PLAYORDER=
